<?xml version="1.0" encoding="utf-8"?>
<!-- Generator: Adobe Illustrator 24.1.1, SVG Export Plug-In . SVG Version: 6.00 Build 0)  -->
<svg version="1.1" id="图层_1" xmlns="http://www.w3.org/2000/svg" xmlns:xlink="http://www.w3.org/1999/xlink" x="0px" y="0px"
	 viewBox="0 0 300 300" style="enable-background:new 0 0 300 300;" xml:space="preserve">
<style type="text/css">
	.st0{fill:#FEFEFE;}
	.st1{fill:#2B3132;}
	.st2{fill:#38AD74;}
	.st3{fill:#DC4C3F;}
	.st4{fill:#4586F3;}
</style>
<g>
	<g>
		<path class="st0" d="M0.5,300.5c0-100,0-200,0-300c100,0,200,0,300,0c0,100,0,200,0,300C200.5,300.5,100.5,300.5,0.5,300.5z
			 M8.6,233.4c0.6,0.1,1.2,0.2,1.8,0.2c20.6,0,41.2,0,61.7-0.1c1,0,2.2-0.6,3-1.3c15.5-15,31-30,46.6-45c0.7-0.7,2-1.2,3-1.2
			c17.2-0.1,34.5-0.1,51.7,0c1,0,2.3,0.5,3,1.2c15.5,14.9,30.9,29.9,46.3,44.9c1.2,1.1,2.3,1.6,3.9,1.6c20.1,0,40.2,0,60.2,0
			c0.8,0,1.6,0,2.6,0c-6.9-55.7-13.8-111.2-20.7-166.6c-0.6-0.1-0.8-0.1-1.1-0.1c-29.6,0-59.2,0-88.7,0.1c-1,0-2.2,0.7-2.9,1.4
			c-6.2,6.3-12.2,12.8-18.4,19.1c-3.4,3.4-7.1,6.5-11,10.1c-0.1-0.2-0.5-1-1.1-1.6c-8.8-9.1-17.6-18.3-26.3-27.4
			c-1.2-1.3-2.4-1.8-4.1-1.8c-28.7,0-57.5,0-86.2,0c-0.9,0-1.8,0-2.7,0C22.3,122.5,15.5,177.9,8.6,233.4z"/>
		<path class="st1" d="M8.6,233.4c6.9-55.5,13.8-110.9,20.7-166.6c0.9,0,1.8,0,2.7,0c28.7,0,57.5,0,86.2,0c1.7,0,2.9,0.5,4.1,1.8
			c8.7,9.2,17.5,18.3,26.3,27.4c0.6,0.6,0.9,1.4,1.1,1.6c3.9-3.6,7.6-6.7,11-10.1c6.2-6.3,12.2-12.8,18.4-19.1
			c0.7-0.7,1.9-1.4,2.9-1.4c29.6-0.1,59.2-0.1,88.7-0.1c0.2,0,0.5,0.1,1.1,0.1c6.9,55.4,13.8,110.8,20.7,166.6c-1,0-1.8,0-2.6,0
			c-20.1,0-40.2,0-60.2,0c-1.6,0-2.8-0.4-3.9-1.6c-15.4-15-30.8-30-46.3-44.9c-0.7-0.7-2-1.2-3-1.2c-17.2-0.1-34.5-0.1-51.7,0
			c-1,0-2.3,0.5-3,1.2c-15.5,15-31,30-46.6,45c-0.7,0.7-2,1.3-3,1.3c-20.6,0.1-41.2,0.1-61.7,0.1C9.8,233.5,9.2,233.4,8.6,233.4z
			 M269.4,213.5c-5.2-42.2-10.4-84.3-15.6-126.4c-0.4,0-0.7-0.1-1-0.1c-20.7,0-41.5,0-62.2,0c-0.9,0-2,0.6-2.7,1.3
			c-12.1,12.5-24.2,25-36.3,37.6c-0.4,0.4-0.8,0.7-1.2,1.1c-12.4-13-24.7-25.9-37-38.8c-1.1-1.2-2.2-1.7-3.9-1.7c-20,0.1-40,0-60,0
			c-0.8,0-1.6,0-2.4,0C42,129,36.8,171.1,31.6,213.3c0.2,0.1,0.3,0.2,0.5,0.2c10.7,0,21.5,0,32.2,0c0.7,0,1.5-0.5,2.1-1
			c15.8-15.2,31.5-30.5,47.3-45.7c0.7-0.7,1.8-1.2,2.8-1.2c22.7-0.1,45.5-0.1,68.2,0c0.9,0,2,0.4,2.6,1
			c15.7,15.1,31.4,30.3,47.1,45.4c0.8,0.8,2.2,1.4,3.4,1.4c7.1,0.1,14.2,0.1,21.2,0.1C262.4,213.5,265.9,213.5,269.4,213.5z"/>
		<path class="st0" d="M269.4,213.5c-3.5,0-7,0-10.5,0c-7.1,0-14.2,0.1-21.2-0.1c-1.2,0-2.6-0.6-3.4-1.4
			c-15.7-15.1-31.4-30.3-47.1-45.4c-0.6-0.6-1.7-1-2.6-1c-22.7-0.1-45.5-0.1-68.2,0c-0.9,0-2.1,0.5-2.8,1.2
			c-15.8,15.2-31.5,30.5-47.3,45.7c-0.5,0.5-1.4,1-2.1,1c-10.7,0.1-21.5,0-32.2,0c-0.2,0-0.3-0.1-0.5-0.2
			C36.8,171.1,42,129,47.2,86.5c0.8,0,1.6,0,2.4,0c20,0,40,0,60,0c1.6,0,2.7,0.5,3.9,1.7c12.3,12.9,24.6,25.8,37,38.8
			c0.4-0.3,0.8-0.7,1.2-1.1c12.1-12.5,24.1-25.1,36.3-37.6c0.7-0.7,1.8-1.3,2.7-1.3c20.7-0.1,41.5-0.1,62.2,0c0.3,0,0.6,0.1,1,0.1
			C259,129.2,264.2,171.3,269.4,213.5z M88.5,109c-6.2,0-12.2,0.1-18.1,0c-2.1-0.1-2.5,0.7-2.5,2.6c0.1,4.1,0,8.1,0,12.4
			c-5,0-9.7,0-14.4,0c0,6.9,0,13.5,0,20.5c4.8,0,9.5,0,14.4,0c0,5,0,9.7,0,14.4c6.9,0,13.6,0,20.6,0c0-4.9,0-9.6,0-14.4
			c4.4,0,8.6,0.1,12.7-0.1c0.7,0,1.9-0.9,1.9-1.4c0.1-6.2,0.1-12.4,0.1-19.1c-5.1,0-9.9,0-14.9,0C88.5,118.7,88.5,114,88.5,109z
			 M213.9,102.8c-9,9-17.9,17.9-26.6,26.6c4.6,4.5,9.3,9.3,13.8,13.7c8.7-8.7,17.7-17.7,26.6-26.6
			C223.1,112.1,218.4,107.4,213.9,102.8z M246.5,136.1c-4.5-4.6-9.1-9.4-13.5-13.9c-8.8,8.8-17.7,17.7-26.4,26.3
			c4.5,4.5,9.2,9.2,13.7,13.7C229,153.6,237.9,144.7,246.5,136.1z"/>
		<path class="st2" d="M88.5,109c0,5,0,9.7,0,14.9c5,0,9.8,0,14.9,0c0,6.6,0,12.8-0.1,19.1c0,0.5-1.2,1.4-1.9,1.4
			c-4.2,0.1-8.3,0.1-12.7,0.1c0,4.8,0,9.5,0,14.4c-6.9,0-13.6,0-20.6,0c0-4.7,0-9.4,0-14.4c-4.9,0-9.6,0-14.4,0c0-6.9,0-13.5,0-20.5
			c4.7,0,9.4,0,14.4,0c0-4.3,0.1-8.4,0-12.4c-0.1-1.9,0.4-2.6,2.5-2.6C76.3,109.1,82.2,109,88.5,109z"/>
		<path class="st3" d="M213.9,102.8c4.5,4.5,9.3,9.3,13.8,13.8c-8.9,8.9-17.8,17.8-26.6,26.6c-4.5-4.4-9.2-9.2-13.8-13.7
			C196,120.7,204.9,111.8,213.9,102.8z"/>
		<path class="st4" d="M246.5,136.1c-8.6,8.6-17.5,17.5-26.2,26.2c-4.5-4.5-9.2-9.2-13.7-13.7c8.7-8.6,17.5-17.5,26.4-26.3
			C237.4,126.7,242.1,131.5,246.5,136.1z"/>
	</g>
</g>
</svg>
