<svg width="1280" height="720" xmlns="http://www.w3.org/2000/svg" xmlns:xlink="http://www.w3.org/1999/xlink" overflow="hidden"><defs><clipPath id="clip0"><rect x="0" y="0" width="1280" height="720"/></clipPath><clipPath id="clip1"><rect x="362" y="-44" width="556" height="557"/></clipPath><clipPath id="clip2"><rect x="362" y="-44" width="556" height="557"/></clipPath><clipPath id="clip3"><rect x="362" y="-44" width="556" height="557"/></clipPath></defs><g clip-path="url(#clip0)"><rect x="0" y="0" width="1280" height="720" fill="#FFFFFF"/><g clip-path="url(#clip1)"><g clip-path="url(#clip2)"><g clip-path="url(#clip3)"><path d="M0.926667 556.927C0.926667 371.593 0.926667 186.26 0.926667 0.926667 186.26 0.926667 371.593 0.926667 556.927 0.926667 556.927 186.26 556.927 371.593 556.927 556.927 371.593 556.927 186.26 556.927 0.926667 556.927ZM15.9387 432.568C17.0507 432.753 18.1627 432.939 19.2747 432.939 57.4533 432.939 95.632 432.939 133.625 432.753 135.479 432.753 137.703 431.641 139.185 430.344 167.912 402.544 196.639 374.744 225.551 346.944 226.848 345.647 229.257 344.72 231.111 344.72 262.988 344.535 295.051 344.535 326.928 344.72 328.781 344.72 331.191 345.647 332.488 346.944 361.215 374.559 389.756 402.359 418.297 430.159 420.521 432.197 422.56 433.124 425.525 433.124 462.777 433.124 500.029 433.124 537.096 433.124 538.579 433.124 540.061 433.124 541.915 433.124 529.127 329.893 516.339 227.033 503.551 124.359 502.439 124.173 502.068 124.173 501.512 124.173 446.653 124.173 391.795 124.173 337.121 124.359 335.268 124.359 333.044 125.656 331.747 126.953 320.256 138.629 309.136 150.676 297.645 162.352 291.344 168.653 284.487 174.399 277.259 181.071 277.073 180.7 276.332 179.217 275.22 178.105 258.911 161.24 242.601 144.189 226.477 127.324 224.253 124.915 222.029 123.988 218.879 123.988 165.688 123.988 112.312 123.988 59.1213 123.988 57.4533 123.988 55.7853 123.988 54.1173 123.988 41.3293 227.033 28.7267 329.708 15.9387 432.568Z" fill="#FEFEFE" transform="matrix(1 0 0 1.0018 362 -44)"/><path d="M15.9387 432.568C28.7267 329.708 41.5147 227.033 54.3027 123.803 55.9707 123.803 57.6387 123.803 59.3067 123.803 112.497 123.803 165.873 123.803 219.064 123.803 222.215 123.803 224.439 124.729 226.663 127.139 242.787 144.189 259.096 161.055 275.405 177.92 276.517 179.032 277.073 180.515 277.444 180.885 284.672 174.213 291.529 168.468 297.831 162.167 309.321 150.491 320.441 138.444 331.932 126.768 333.229 125.471 335.453 124.173 337.307 124.173 392.165 123.988 447.024 123.988 501.697 123.988 502.068 123.988 502.624 124.173 503.736 124.173 516.524 226.848 529.312 329.523 542.1 432.939 540.247 432.939 538.764 432.939 537.281 432.939 500.029 432.939 462.777 432.939 425.711 432.939 422.745 432.939 420.521 432.197 418.483 429.973 389.941 402.173 361.4 374.373 332.673 346.759 331.376 345.461 328.967 344.535 327.113 344.535 295.236 344.349 263.173 344.349 231.296 344.535 229.443 344.535 227.033 345.461 225.736 346.759 197.009 374.559 168.283 402.359 139.371 430.159 138.073 431.456 135.664 432.568 133.811 432.568 95.632 432.753 57.4533 432.753 19.46 432.753 18.1627 432.753 17.0507 432.568 15.9387 432.568ZM499.288 395.687C489.651 317.476 480.013 239.451 470.376 161.425 469.635 161.425 469.079 161.24 468.523 161.24 430.159 161.24 391.609 161.24 353.245 161.24 351.577 161.24 349.539 162.352 348.241 163.649 325.816 186.816 303.391 209.983 280.965 233.335 280.224 234.076 279.483 234.632 278.741 235.373 255.76 211.28 232.964 187.372 210.168 163.464 208.129 161.24 206.091 160.313 202.94 160.313 165.873 160.499 128.807 160.313 91.74 160.313 90.2573 160.313 88.7747 160.313 87.292 160.313 77.84 239.08 68.2027 317.105 58.5653 395.316 58.936 395.501 59.1213 395.687 59.492 395.687 79.3227 395.687 99.3387 395.687 119.169 395.687 120.467 395.687 121.949 394.76 123.061 393.833 152.344 365.663 181.441 337.307 210.724 309.136 212.021 307.839 214.06 306.912 215.913 306.912 257.984 306.727 300.24 306.727 342.311 306.912 343.979 306.912 346.017 307.653 347.129 308.765 376.227 336.751 405.324 364.921 434.421 392.907 435.904 394.389 438.499 395.501 440.723 395.501 453.881 395.687 467.04 395.687 480.013 395.687 486.315 395.687 492.801 395.687 499.288 395.687Z" fill="#2B3132" transform="matrix(1 0 0 1.0018 362 -44)"/><path d="M499.288 395.687C492.801 395.687 486.315 395.687 479.828 395.687 466.669 395.687 453.511 395.872 440.537 395.501 438.313 395.501 435.719 394.389 434.236 392.907 405.139 364.921 376.041 336.751 346.944 308.765 345.832 307.653 343.793 306.912 342.125 306.912 300.055 306.727 257.799 306.727 215.728 306.912 214.06 306.912 211.836 307.839 210.539 309.136 181.256 337.307 152.159 365.663 122.876 393.833 121.949 394.76 120.281 395.687 118.984 395.687 99.1533 395.872 79.1373 395.687 59.3067 395.687 58.936 395.687 58.7507 395.501 58.38 395.316 68.2027 317.105 77.84 239.08 87.4773 160.313 88.96 160.313 90.4427 160.313 91.9253 160.313 128.992 160.313 166.059 160.313 203.125 160.313 206.091 160.313 208.129 161.24 210.353 163.464 233.149 187.372 255.945 211.28 278.927 235.373 279.668 234.817 280.409 234.076 281.151 233.335 303.576 210.168 325.816 186.816 348.427 163.649 349.724 162.352 351.763 161.24 353.431 161.24 391.795 161.055 430.344 161.055 468.708 161.24 469.264 161.24 469.82 161.425 470.561 161.425 480.013 239.451 489.651 317.476 499.288 395.687ZM164.02 202.013C152.529 202.013 141.409 202.199 130.475 202.013 126.583 201.828 125.841 203.311 125.841 206.832 126.027 214.431 125.841 221.844 125.841 229.813 116.575 229.813 107.864 229.813 99.1533 229.813 99.1533 242.601 99.1533 254.833 99.1533 267.807 108.049 267.807 116.76 267.807 125.841 267.807 125.841 277.073 125.841 285.784 125.841 294.495 138.629 294.495 151.047 294.495 164.02 294.495 164.02 285.413 164.02 276.703 164.02 267.807 172.175 267.807 179.959 267.992 187.557 267.621 188.855 267.621 191.079 265.953 191.079 265.027 191.264 253.536 191.264 242.045 191.264 229.628 181.812 229.628 172.916 229.628 163.649 229.628 164.02 219.991 164.02 211.28 164.02 202.013ZM396.428 190.523C379.748 207.203 363.253 223.697 347.129 239.821 355.655 248.161 364.365 257.057 372.705 265.212 388.829 249.088 405.509 232.408 422.004 215.913 413.479 207.759 404.768 199.048 396.428 190.523ZM456.847 252.239C448.507 243.713 439.981 234.817 431.827 226.477 415.517 242.787 399.023 259.281 382.899 275.22 391.239 283.56 399.949 292.271 408.289 300.611 424.413 284.672 440.908 268.177 456.847 252.239Z" fill="#FEFEFE" transform="matrix(1 0 0 1.0018 362 -44)"/><path d="M164.02 202.013C164.02 211.28 164.02 219.991 164.02 229.628 173.287 229.628 182.183 229.628 191.635 229.628 191.635 241.86 191.635 253.351 191.449 265.027 191.449 265.953 189.225 267.621 187.928 267.621 180.144 267.807 172.545 267.807 164.391 267.807 164.391 276.703 164.391 285.413 164.391 294.495 151.603 294.495 139.185 294.495 126.212 294.495 126.212 285.784 126.212 277.073 126.212 267.807 117.131 267.807 108.42 267.807 99.524 267.807 99.524 255.019 99.524 242.787 99.524 229.813 108.235 229.813 116.945 229.813 126.212 229.813 126.212 221.844 126.397 214.245 126.212 206.832 126.027 203.311 126.953 202.013 130.845 202.013 141.409 202.199 152.344 202.013 164.02 202.013Z" fill="#38AD74" transform="matrix(1 0 0 1.0018 362 -44)"/><path d="M396.428 190.523C404.768 198.863 413.664 207.759 422.004 216.099 405.509 232.593 389.015 249.088 372.705 265.397 364.365 257.243 355.655 248.347 347.129 240.007 363.253 223.697 379.748 207.203 396.428 190.523Z" fill="#DC4C3F" transform="matrix(1 0 0 1.0018 362 -44)"/><path d="M456.847 252.239C440.908 268.177 424.413 284.672 408.289 300.796 399.949 292.456 391.239 283.745 382.899 275.405 399.023 259.467 415.332 242.972 431.827 226.663 439.981 234.817 448.692 243.713 456.847 252.239Z" fill="#4586F3" transform="matrix(1 0 0 1.0018 362 -44)"/></g></g></g><text fill="#2B3132" font-family="Hollow Point,Hollow Point_MSFontService,sans-serif" font-weight="400" font-size="266.667" transform="translate(73.75 610)">GAMEZONE</text></g></svg>